<?xml version="1.0" encoding="UTF-8"?>
<svg id="Layer_1" data-name="Layer 1" xmlns="http://www.w3.org/2000/svg" viewBox="0 0 310.05 310.04">
  <defs>
    <style>
      .cls-1 {
        stroke-width: 0px;
      }

      .cls-1, .cls-2 {
        fill: #fff;
      }

      .cls-2 {
        font-family: JosefinSans-Regular, 'Josefin Sans';
        font-size: 40px;
      }
    </style>
  </defs>
  <g id="Object">
    <g>
      <path class="cls-1" d="M152.82,187.71h0c.13-.04.26-.09.39-.13l-.02-.69c-.14-.09-.27-.18-.41-.26.12-.27.23-.54.35-.81,0,0,.02,0,.03,0-.34-12.5.04-25.09.06-37.6-.04-.07-.07-.14-.07-.2-3.2-3.11-45.82-46.6-46.74-45.81-.43.36,9.77,11.11,10.52,11.91,1.71-1.5,4.06,3.91,3.85,4.24,2.72,3.03,5.66,5.85,8.54,8.73.89,0,1.2.31.93.91,7.16,6.92,14.36,13.8,21.56,20.68.24,19.66.71,39.34.49,59,.3.04.61.08.91.13.05-6.57.24-13.14,0-19.7-.14-.14-.27-.28-.41-.41Z"/>
      <path class="cls-1" d="M120.13,249.96c-.53.37-.5.5.11.4-.09-.12-.13-.25-.11-.4Z"/>
      <path class="cls-1" d="M152.35,208.8s-.04,0-.06,0c.02,8.06,2.6,18.25-3.87,24.44.04,0,.07.02.11.02.2.29.41.58.61.86,6.85-6.35,4.13-16.93,4.08-25.3-.24-.06-.56-.06-.86-.04Z"/>
      <path class="cls-1" d="M142.97,238.11c-.21.15-.47.29-.69.44.22-.15.48-.29.69-.44Z"/>
      <path class="cls-1" d="M148.42,233.25c-1.41,1.51-3.47,2.78-5.18,3.92.49.07.98.13,1.47.2-.15.16-.3.33-.45.49-.33-.02-.66-.03-.99-.05-.08.11-.18.21-.31.3-.21.15-.47.29-.69.44.22-.15.48-.29.69-.44.13-.09.24-.19.31-.3-.17-.06-.33-.13-.5-.19-.07,0-.14,0-.21,0-.62.43-1.25.84-1.89,1.24-.04.22-.19.43-.45.62-.09.6-.73,1.11-1.2.41-5.77,3.48-12,6.09-17.84,9.43.13.22.16.47.08.73.89-.31,1.77-.68,2.64-1.05-.41-.21-.68-.44-.63-.72-.05.29.22.52.63.72,1.12-.48,2.23-.98,3.35-1.48,0,0,0,0,0-.01.12-.34.34-.49.66-.48.01-.01.02-.02.04-.03,0,0,0,.02,0,.02,7.37-2.68,15.37-7.54,21.17-12.9-.2-.29-.41-.58-.61-.86-.04,0-.07-.01-.11-.02Z"/>
      <path class="cls-1" d="M176.07,241.38c-.72,0-1.44.08-2.14.24,1.32.78,16.69,9.19,17.65,7.74.11-.16-14.54-7.44-15.51-7.98Z"/>
      <path class="cls-1" d="M199.6,100.78c-1.3-.48-2.65-.81-4.01-1.12,1.32.37,2.67.77,4.01,1.12Z"/>
      <path class="cls-1" d="M173.22,117.24h0c.07-.08.14-.15.22-.22-.08.07-.15.14-.22.22Z"/>
      <path class="cls-1" d="M195.96,98.01c-3.19-.83-6.38-1.38-9.66-1.72.53-.69,1.06-1.36,1.53-2.09.1.05.2.09.31.13.53-.45,3.01.12,1.59.56,5.1,1.46,10.99-.55,13.46-5.26,1.08-2.06,1.66-4.21,1.04-6.5-.19-.7-3.15-5.86-4.11-4.37.22-.34,3.15,5.83,3.15,6.63-.03,3.33-2.39,6.89-5.44,8.17-2.73,1.14-6.81.94-9.38-.3.38-.58,1.52-1.97,1.33-2.75.55.19,2.93,2.49,2.86,1.58-.09-1.17-1.64-1.87-2.51-2.28-.42-.2-3.59-1.44-4.02-.41-.5,1.21,3.05.99,3.29.95-.88.3-1.59,1.47-2.15,2.21-4.11-3.02-4.92-7.85-1.59-11.77,1.21-1.42,2.9-2.54,4.7-3.02.97-.26,8.67.11,8.64.18.66-1.67-7.3-2.2-8.29-2.02-2.24.41-4.36,1.73-5.87,3.41-4.08,4.52-3.22,10.72,1.74,14.17-.61.89-1.28,1.75-1.93,2.61-13.73-1.52-27.39-1.65-41.16-.8-.36.74-.94.71-3.44.59.07-.15.17-.29.28-.41-3.65.09-7.32.56-10.93,1.09.02.02.04.03.06.05h0c-.15.3-.7.29-.9.07-4.16.55-8.37,1.09-12.5,1.87-1.18.23-10.06,1.91-9.86,3.05.04.25,16.22-2.81,17.68-3.04.2-1.14,2.28-1.08,2.96-.52,9.71-1.82,20.68-2.85,30.61-2.24.54-.21,1.07-.17,1.59.11,8.18.53,16.32.48,24.46,1.66,0,0-.01.02-.02.03-8.02-.49-15.88-.97-23.92-.95.01.65-1.1,1.14-1.59,1.33,8.08.58,16.17.73,24.25,1.42-1.1,1.91-2.28,3.77-3.47,5.62-14.36,2.24-29.67,1.81-44.1.58-.04.91-4.22.66-3.92-.42-6.21-.77-12.28-1.58-18.46-2.65.46.95-2.86.93-2.37-.34.32-.82,2.16-.05,2.36.31,2.45-.39,4.88-.87,7.32-1.27-1.21-.28,2.78-1.26,3.18-.45,11.23-1.19,22.65-3.62,34.03-2.88-.1-.11-.16-.26-.29-.42.1-.28.17-.6.3-.93-9.86-.41-20.31,1-30.06,2.43-.07.09-.15.18-.21.26.53,1.45-1.78.68-2.33.03-4.58.35-10.81.63-14.89,2.89-.32-.02-.43.07-.31.25-.1.25.07.37.52.35,4.84,2.55,11.47,3.46,16.89,3.92-.95-.94,2.79-.59,1.16.08,16.83,1.04,33.43,1.41,50.22-.46-2.15,2.51-3.75,5.38-5.8,7.96-3.92.1-43.38,3.72-42.65,6.43.32,1.19,14.73-2.58,15.55-2.75-.83-.26.6-.86.56-.11,8.59-1.77,17.09-2.32,25.83-2.71-.02.02-.04.05-.06.07-7.79,1.1-14.73,5.09-22.25,7.2-3.94,1.1-8.51,1.78-12.6.99-1.4-.27-6.68-1.79-7.02-2.37-.66.43,6.06,7.82,7.06,8.79,4.64,4.49,10.72,11.53,17.26,12.83,9.25,1.84,17.82-11.02,23.48-16.77-.14,0-.29.02-.43.03-.19.09-.37.17-.56.26-.55.66-.83.89-1.62.33-.71-.08-1.11-.45-1.19-1.11-.35-.17-.44-.36-.19-.59-.09-.18-.18-.35-.27-.53,1.56-.42,3.64.44,5.27.55,0,.01-.01.03-.02.04,2.05-2.12,3.98-4.35,5.71-6.74,0,0-.05-.04-.15-.12.34-2.31-7.54-3.25-8.72-3.32-.42-.27-.89-.38-1.41-.33,1.97-2.7,3.8-5.5,5.74-8.22,6.82-.98,16.31-.49,22.47-3.91.32.02.43-.07.31-.25.1-.25-.07-.37-.52-.35-.63-.33-1.28-.61-1.94-.85-1.34-.35-2.69-.76-4.01-1.12-1.22-.28-2.45-.54-3.66-.87,1.19.21,2.41.53,3.66.87,1.36.31,2.71.65,4.01,1.12,2.06.54,4.12.96,6.09.95-8.56,5.1-16.07,14.06-22.99,21.21-8.22,8.48-16.72,16.68-25.08,25.01.05.05.09.1.14.15.58-.02,1.16-.03,1.75-.05,1.97-1.92,3.86-3.77,5.67-5.55-.12-.12-.18-.26-.16-.41-.03.15.04.28.16.41,7.43-7.27,14.84-14.53,22.15-21.93,2.79-2.83,5.71-5.51,8.49-8.35,2.19-2.23,4.37-4.48,6.58-6.69.81-.81,3.04-3.75,3.57-3.96-1.2-2.1-7.88-3.01-10.01-3.57ZM185.37,92.46c-.15-.18-.29-.36-.44-.54.33,0,.66.09.96.27-.18.09-.35.18-.53.26ZM139.5,118.26c-.07.07-.11.07-.12,0,.04,0,.08,0,.12,0,0,0,.02-.01.03-.03l.02.03s-.03,0-.05,0ZM139.55,118.25c.65.22.9.3.95.48-.05-.18-.3-.26-.95-.48ZM143.52,130.27c-.31.09-.52,0-.63-.26.18-.38,2.37-2.26,2.84-.94-.61.38-1.12.94-2.21,1.21ZM156.94,124.32s.71-.02-.18.21c.06-.07.1-.15.18-.21ZM155.72,122.89c-.07-.03-.19-.07-.24-.1.06.04.17.07.24.1ZM154.12,120.85c.36.11.73.21,1.1.32-.37-.11-.73-.21-1.1-.32h0ZM152.01,122.52c.07-.12.22-.23.34-.34,1.33-.39,1.88.35,2.48,1.36-.37-.03-3.15-.41-2.82-1.01ZM155.01,141.62c-.61.12-1.14-.01-1.59-.41-.01-.33.14-.51.45-.55-.7.04-1.36-.11-1.99-.46.23-.66.68-1.02,1.36-1.08,1.09.32,1.94.73,1.8,1.48.48.04.84.2.94.53-.06.32-.45.47-.97.49ZM158.19,133.11c-.48-.1-.96-.2-1.44-.3.48.1.96.2,1.44.3.23.32.46.64.68.97-.23-.32-.46-.64-.68-.97ZM160.01,119.3c-1.07,1.07.04-2.04.18-.32-.04.08-.07.21-.18.32ZM167.07,120.96c-.12.04-.26.08-.39.11h-.02c.23-.26.57-.17.41-.11ZM167.14,118.72s-.05-.05-.08-.08c.1-.07.18-.06.24.05-.05.01-.12.04-.16.04ZM167.68,120c.41,0,.84,0,.99.28-.44.03-.86.02-.99-.28ZM168.61,133.34c-.14-.18-.29-.36-.44-.54.33,0,.66.09.96.27-.18.09-.35.17-.53.26ZM170.73,124.13s-.06.08-.09.12q-.93-.15-.87-.68c1.24-.08,1.27-.07.96.56ZM171.99,119.07c-.24.11-.53.18-.73.24.24.02-1.61.02-1.36-.4.46-.77,2.58-.06,2.09.17ZM172.56,129.41c-.18-.01-.21-.07-.1-.18.25-.06.29,0,.1.18ZM180.64,119.8c.05,0,.12.03.18.05-.05.03-.09.05-.13.08-.07-.02-.13-.04-.19-.06.05-.03.09-.07.14-.07ZM178.61,116.22c1.38.43-1.33,1.34-1.39.92.25-.59.71-.89,1.39-.92ZM174.98,120.26c-.08-.05-.16-.09-.23-.14.23-.06.82-.17.23.14ZM173.84,116.76c-.15.07-.28.16-.4.26-.08.07-.15.14-.22.22l.05.04c.48.13.73.34.8.62-.53-.11-.95-.25-.8-.62l-.06-.04h0s0,0,0,0c.07-.08.14-.15.22-.22.12-.1.26-.19.4-.26ZM181.06,105.81c-.26.18-.56.15-.9-.08-.08-.07.66-.52,1.01-.1-.04.06-.06.14-.1.19ZM192.98,100.06c.3-.19.61-.17.91.06,0,.33-1.05.21-.91-.06ZM198.87,101.89c-6.23,1.01-12.46,1.94-18.69,2.92.68-.99,1.34-1.99,1.99-3.01-.24-.15-.39-.32-.39-.51,0-.03,0-.05,0-.08,0,.03,0,.06,0,.08,0,.19.16.36.39.51.51-.74.96-1.53,1.48-2.27.59.05,1.12.09,1.59.17,4.56.67,9.08,1.39,13.63,2.18ZM178.76,129.06c-.38.07-.76.05-1.15-.05-.21-.18.65-.79.67-.81.72.2.73.51.48.86Z"/>
      <path class="cls-1" d="M153.87,140.66c.05,0,.1,0,.15,0-.05,0-.11,0-.15,0Z"/>
      <path class="cls-1" d="M159,220.43c-.44.02-.85.02-.98-.28.41,0,.82,0,.98.27.1-7.16.03-14.33.03-21.49-.31,0-.61.02-.92.06.02,5-.08,10-.06,15,.03,5.08-1.1,11.22,1.51,15.83,2.58,4.56,8.02,7.9,12.3,10.56.1-.45.44-.68,1.03-.7.04-.03.06-.04.1-.07-7.95-4.8-14.13-9.23-14-19.18Z"/>
      <path class="cls-1" d="M159.01,163.37c-.02-4.37-.05-8.74-.08-13.12-.07.05-.13.09-.2.14-.37-.04-.74-.08-1.11-.11.04-.72.08-1.45.13-2.17-.07.01-.14.03-.22.04.06,5.83.19,11.66.27,17.49.33.02.32.43,0,.52.02,1.42,0,2.84-.03,4.26.13,0,.26,0,.41,0-.15.06-.28.13-.41.2-.09,5.55-.1,11.13.16,16.67.25.19.26.34.02.45.16,3.4.15,6.79.16,10.19.31,0,.61,0,.92.02,0-11.32.03-22.65-.01-33.97-1.02-.19-.34-.6,0-.6Z"/>
      <path class="cls-1" d="M160.14,255.38c8.05-1.11,16.67-2.16,24.74-2.78-.04.07-.08.15-.12.22.46-.08,5.92-1,5.82-1.75.04.33-28.73,3.35-31.42,3.5.4.24.79.48.97.8Z"/>
      <path class="cls-1" d="M157.47,254.6c-9.18.03-18.43-.52-27.53-1.78-.95-.14-9.32-2.1-9.49-1.4-.84,3.29,35.49,4.17,38.22,4.08-.72,0-1.11-.31-1.19-.91Z"/>
      <path class="cls-1" d="M155.52,149.58c-.29,5.21-.04,10.45-.06,15.67.09.02.18.04.27.06.02-5.63.23-11.25.3-16.88-.15.02-.3.04-.45.06-.03.36-.05.72-.06,1.09Z"/>
      <path class="cls-1" d="M155.92,146.45c-.06-.01-.13.27-.2.78.1-.02.2-.05.3-.07-.02-.44-.05-.7-.11-.71Z"/>
      <path class="cls-1" d="M155.44,171.9c0,.12-.08,3.41.17,3.41.24,0,.2-2.73.2-2.98-.18-.14-.32-.28-.37-.43Z"/>
      <path class="cls-1" d="M155.46,165.67c0,1.98,0,3.97-.02,5.95.09-.17.21-.32.37-.43,0-1.82-.07-3.63-.07-5.45-.09-.02-.18-.04-.27-.07Z"/>
      <path class="cls-1" d="M156.48,172.9c-.01,4.49.1,8.99-.03,13.48.1.01.2.03.29.06,0-.22,0-.45.01-.67.12-4.26.09-8.53.14-12.8-.14.02-.27,0-.4-.07Z"/>
      <path class="cls-1" d="M156.64,172.42c.08.01.16.02.25.03,0-.37,0-.74,0-1.11-.24.33-.31.69-.25,1.08Z"/>
      <path class="cls-1" d="M156.52,165.48c.15.03.31.05.46.08,0-.26.01-.55.01-.77.02-2.13-.1-15.68-.16-15.68-.63.03-.29,14.97-.32,16.37Z"/>
      <path class="cls-1" d="M156.49,166.43c-.05,1.43-.03,2.86-.02,4.29.13-.07.27-.12.42-.17,0-1.47.01-2.93.07-4.4-.14-.07-.3-.14-.46-.19,0,.15,0,.31-.02.47Z"/>
      <path class="cls-1" d="M156.43,188.16c0,.09,0,.18,0,.27-.02,2.61-.63,24.17.13,24.26-.04,0,.1-22.21.15-24.56-.09,0-.18.02-.28.03Z"/>
      <path class="cls-1" d="M155.43,188.09s-.05,0-.07,0c.02,3.38.03,6.77.13,10.15.02-.01.04-.03.08-.04-.02.06-.05.12-.07.19.06,2-.43,27.64.34,27.72-.44-.05.02-34.35.02-37.91-.14-.01-.28-.04-.42-.09Z"/>
      <path class="cls-1" d="M155.54,178.89c-.82.81-.2,6.36-.19,7.42.17.01.33.03.5.03,0-.24,0-.49,0-.73,0-.25-.47-6.56-.31-6.72Z"/>
      <path class="cls-1" d="M154.84,151.34c-.51.03-.28,12.13-.3,12.9.1.12.2.24.3.36,0-.25,0-.51,0-.78,0-.72.42-12.5,0-12.48Z"/>
      <path class="cls-1" d="M154.5,165.25c-.01.29-.02.57-.03.82-.15.77-.1,1.52.15,2.25.34-.03.22-2.75.22-3.02-.12-.01-.23-.03-.34-.05Z"/>
      <path class="cls-1" d="M154.61,170.85c-.29-.03-.25,14.01-.22,15.33.15.03.31.05.47.08-.01-.55-.02-1.1-.03-1.65-.02-1.36.29-13.71-.22-13.75Z"/>
      <path class="cls-1" d="M154.51,209.67c.02,1.17-.47,19.92.22,20,.07,0,.04-20.16.04-21.02-.09.34-.17.68-.26,1.02Z"/>
      <path class="cls-1" d="M154.44,188.56s-.02,0-.03,0c.02,2.16-.01,4.32,0,6.48.12-.01.25-.02.39-.02,0-2.28.05-4.56.05-6.83-.22.08-.35.21-.41.39Z"/>
      <path class="cls-1" d="M154.42,195.34c0,4.21.13,8.42.08,12.63.13.03.22.06.27.1.04-4.36.03-8.72.04-13.07-.14,0-.27,0-.39.02,0,.11,0,.22,0,.32Z"/>
      <path class="cls-1" d="M153.77,150.31c.22.17.3,1.8.3,3.89.07-2.27.01-3.76-.3-3.89Z"/>
      <path class="cls-1" d="M153.56,182.02c-.91-.67.27-14.87.27-16.94-.29-.13-.43-.33-.29-.66.07-.17-.27-.41.29-.45,0-.61.23-5.94.23-9.76-.26,8.19-2.26,26.51-.5,27.81Z"/>
      <path class="cls-1" d="M153.73,150.3s.02,0,.03.01c-.01,0-.02-.01-.03-.01Z"/>
      <path class="cls-1" d="M153.62,187.39c.03-.05.06-.11.08-.17h0s-.05-.03-.07-.05c0,.07,0,.14-.01.21Z"/>
      <path class="cls-1" d="M153.7,210c-.06-.29-.01-.59-.12-.87,0,1.47-.3,22.13.29,22.18.07,0,.05-19.85.04-21.16-.1-.03-.19-.1-.2-.15Z"/>
      <path class="cls-1" d="M153.74,186.02c.08.02.16.04.24.06,0-.1,0-.19-.01-.26-.06-1.17-.2-.07-.23.2Z"/>
      <path class="cls-1" d="M153.89,195.15s.09-.03.14-.05c-.02-2.22,0-4.45-.03-6.67-.14-.04-.29-.08-.43-.12-.23,6.51.08,13.04.02,19.56.11.01.23.02.34.03.02-.91.02-1.82.02-2.73,0-3.35.12-6.71.08-10.06-.05.02-.1.03-.14.05Z"/>
      <path class="cls-1" d="M156.54,228.63c.18.01.16-10.59.19-11.79.11-.71.05-1.4-.18-2.06-.78.08-.02,13.85,0,13.85Z"/>
      <path class="cls-1" d="M113.22,105.04c-1.24,1.04,8.63,9.42,9.41,10.28.04-.01.09-.02.13-.04-.02.04-.05.07-.07.11.23.27,5.26,5.36,5.71,4.9-.11.12-15.19-15.25-15.18-15.25Z"/>
      <path class="cls-1" d="M186.63,115.55c-.22.2-1.38,1.21-1.1,1.54.27.32,13.09-12.55,12.63-12.98-.74-.7-10.26,10.33-11.54,11.44Z"/>
      <path class="cls-1" d="M139.52,242.83c.46.03.89-.04,1.38-.16,1.45-1.01,2.85-2.08,4.3-3.09-.03-.06-.05-.13-.05-.2,0-.02,0-.05,0-.07,0,.02,0,.05,0,.07,0,.07.02.13.05.19.42-.29,5.9-4.31,5.67-4.61-.6-.79-11.33,7.85-11.34,7.86Z"/>
      <path class="cls-1" d="M127.26,250.64s0-.02,0-.04c0,.01,0,.02,0,.04Z"/>
      <path class="cls-1" d="M186.96,250.19s0,0-.01.01c0,0,0,0,.01-.01Z"/>
      <path class="cls-1" d="M187,250.13s-.02.04-.04.06c.02-.02.03-.04.04-.06Z"/>
      <path class="cls-1" d="M164.26,236.83c-1.71,1.56,13.38,10.19,14.72,10.77-3.82-.81-7.58-1.24-11.5-1.5-.62-.59-7.46-11.12-7.37-11.17-1.58.79,5.96,10.51,6.52,10.97.13,0,.27,0,.42,0-.15.28-.57.27-.99.28.03-.07.08-.12.14-.17-1.96-.11-3.92-.12-5.88-.12-.16-.55-2.26-11.31-2.23-11.31-1.72.16,1.47,10.63,1.73,11.31-1.44,0-2.89-.07-4.33-.05-.2-1.25-.21-2.73-.18-4-.08-.06-.12-.13-.18-.2,0,0,0,0-.01,0,0,0,0,0,0,0h0s0,0,0,0c.06.02.12.03.18.05,0-.09.38-8.42.14-8.44-1.52-.12-.61,11.32-.47,12.61-.33,0-.66.02-.99.03.03.01.07.02.1.03.32.39.31.62-.02.68-.3.03-.47-.62-.27-.71-1.33.04-2.63.27-3.95.33.54-1.43,5.15-12.54,4.2-12.75-.74-.16-4.16,11.43-4.75,12.77-2.95.15-5.83.34-8.77.73,2.43-2.12,5.15-3.9,7.33-6.34-.36.04-.73.06-1.1.09-.02-.01-.04-.03-.06-.04-2.29,2.29-4.55,4.4-7.05,6.41-2.35.34-4.71.53-7.05.89,2.19-1.56,4.54-3,6.81-4.43-.25-.04-.48-.11-.69-.21-2.18,1.48-4.41,2.86-6.61,4.32.22.07.38.16.36.32-.05.62-1.32.5-1.65.36-.54.24-1.25.28-1.82.45-.03.03-.06.07-.09.1.24.38.33,1.15-.38.69-.11.07-1.34.71-1.31,1.03.07-.72,10.87-2.49,11.24-2.55-.39.33-3.47,1.81-3.13,2.41.28.5,4-2.45,4.18-2.6,3.15-.56,6.28-.86,9.48-.96-.18.44-2.21,2.98-1.68,3.36.44.31,2.17-3.15,2.27-3.38,1.83-.07,3.62-.25,5.46-.25.06.43-.25,3.53.46,3.52.41,0,.14-3.24.09-3.51,1.5.03,3.01.12,4.51.16.09.35,2.85,6.82,3.71,5.75.01-.02-3.11-5.28-3.24-5.74,2.41.04,4.81.17,7.22.38.19.25,5.73,5.28,6.28,4.27.09-.16-5.04-3.69-5.15-3.78-.34.04-.56-.09-.66-.39-.22-.36,1.1-.42,1.34-.41-.03,0-.02,0,.02,0,.02,0,.02,0,.01,0,.25.06,1.39.41.71.58,4.06.49,8.55,1.74,12.6,1.8-.19-.1.01-.2.18-.26-6.74-3.19-19.86-11.26-18.89-12.15Z"/>
      <path class="cls-1" d="M169.63,246.86s.01,0,.02,0c0,0,.01,0,.01,0,0,0,0,0-.01,0,0,0-.01,0-.02,0Z"/>
      <path class="cls-1" d="M183.77,249.27c-.07.04-.21.06-.46.05.46.19,3.2,1.27,3.63.88-.27.24-1.47-.15-3.17-.93Z"/>
      <path class="cls-1" d="M183.3,248.93h0s0,0,0,0c0,0-.07.02-.15.05.22.1.43.2.63.29.2-.1-.18-.33-.47-.34Z"/>
      <path class="cls-1" d="M128.54,249.56c-.11-.08-.15-.2-.17-.3,0-.26.18-.39.55-.38h0s.06-.05.09-.08c-.52.08-.98.29-1.36.64.28.14.58.18.88.13Z"/>
      <path class="cls-1" d="M147.44,239.92c.35,0,.7.03,1.04.1.31-.34,2.43-2.11,2.11-2.41-.5-.47-2.78,1.89-3.15,2.31ZM149.3,238.86c.03-.29.18-.57.52-.81h0c.1.32-.06.59-.52.81Z"/>
      <path class="cls-1" d="M210.26,58.52c.4.36.51,1.07-.21,1.34,0,.53.49.94.97,1.09-1.28,1.75-2.19,3.96-3.65,5.5.4.19.55.45.77.7,1.32-1.64,3.47-3.8,4.22-5.8,7.59,1.98.69-11.67-2.1-2.83ZM211.53,59.94c-.02-.07-.09-.34.02-.38.97-.54.7-3.27,2.77-2.05,2.87,1.69-1.59,2.4-2.78,2.43Z"/>
      <path class="cls-1" d="M204.78,69.97c-1.32,1.96-2.78,3.82-4.09,5.78-1.25,1.88-2.1,3.47.91,1.54,3.06-1.96,4.56-7.06,6.49-10.07-.36-.14-.74-.21-1.13-.22-.58,1.11-1.53,1.93-2.18,2.97Z"/>
      <path class="cls-1" d="M185.14,88.22c.24-.04.16-3.95.47-4.68.06-.17,2.81-3.94,2.9-3.8-1.7-2.6-5.6,8.92-3.37,8.48Z"/>
      <path class="cls-1" d="M188.36,81.65c-.77-.83-1.41,2.04-1.44,2.18-.63,2.47.76,2.48.57,0,.17-.65,1.28-1.74.87-2.18Z"/>
      <path class="cls-1" d="M188.6,84.7c-.26,1.01.11.83.45.14-.05-.06-.06-.12,0-.19.03-.11.25-.44.33-.6-.04-.01-.07-.02-.11-.04h0s.07.03.11.04c.06-.08-.43-.69-.77.65ZM189.21,84.03c-.07.07-.11.07-.12,0,.04,0,.08,0,.12,0,0,0,.02-.01.03-.03l.02.03s-.03,0-.05,0Z"/>
      <path class="cls-1" d="M194.38,91.72c1.9.11,5.68-7.38,5.28-7.49-1.17-.34-3.9,7.55-5.28,7.49Z"/>
      <path class="cls-1" d="M200.85,84.85c-.3-.05-3.92,6.99-4.13,6.68.68,1.03,5.3-6.48,4.13-6.68Z"/>
      <path class="cls-1" d="M201.86,86.78c-.25-.07-.86.28-.96.54-.19.47-2.59,4.28-2.68,4.1.47.94,4.53-4.4,3.64-4.64Z"/>
    </g>
  </g>
  <text class="cls-2" transform="translate(57.54 82.02) rotate(-46.62)"><tspan x="0" y="0">C</tspan></text>
  <text class="cls-2" transform="translate(79.43 59.91) rotate(-33.39)"><tspan x="0" y="0">o</tspan></text>
  <text class="cls-2" transform="translate(100.91 46.38) rotate(-22.19)"><tspan x="0" y="0">c</tspan></text>
  <text class="cls-2" transform="translate(121.25 38.37) rotate(-11.38)"><tspan x="0" y="0">k</tspan></text>
  <text class="cls-2" transform="translate(144.56 34.25) rotate(-1.53)"><tspan x="0" y="0">t</tspan></text>
  <text class="cls-2" transform="translate(162.58 33.69) rotate(9.03)"><tspan x="0" y="0">a</tspan></text>
  <text class="cls-2" transform="translate(189.25 38.81) rotate(18.81)"><tspan x="0" y="0">i</tspan></text>
  <text class="cls-2" transform="translate(202.66 43.64) rotate(25.6)"><tspan x="0" y="0">l</tspan></text>
  <text class="cls-2" transform="translate(215.36 49.92) rotate(32.9)"><tspan x="0" y="0"> </tspan></text>
  <text class="cls-2" transform="translate(229.26 58.46) rotate(44.1)"><tspan x="0" y="0">C</tspan></text>
  <text class="cls-2" transform="translate(251.09 80.64) rotate(57.35)"><tspan x="0" y="0">o</tspan></text>
  <text class="cls-2" transform="translate(264.28 102.4) rotate(67.82)"><tspan x="0" y="0">r</tspan></text>
  <text class="cls-2" transform="translate(271.33 119.75) rotate(78.41)"><tspan x="0" y="0">n</tspan></text>
  <text class="cls-2" transform="translate(276.19 144.86) rotate(90.93)"><tspan x="0" y="0">e</tspan></text>
  <text class="cls-2" transform="translate(275.41 169.43) rotate(100.32)"><tspan x="0" y="0">r</tspan></text>
  <text class="cls-2" transform="translate(271.65 187.99) rotate(108.77)"><tspan x="0" y="0"> </tspan></text>
  <text class="cls-2" transform="translate(265.89 203.69) rotate(115.33)"><tspan x="0" y="0">.</tspan></text>
  <text class="cls-2" transform="translate(261.19 213.46) rotate(121.88)"><tspan x="0" y="0"> </tspan></text>
  <text class="cls-2" transform="translate(252.9 227.5) rotate(133.08)"><tspan x="0" y="0">C</tspan></text>
  <text class="cls-2" transform="translate(231.11 249.73) rotate(146.32)"><tspan x="0" y="0">o</tspan></text>
  <text class="cls-2" transform="translate(209.7 263.37) rotate(157.51)"><tspan x="0" y="0">c</tspan></text>
  <text class="cls-2" transform="translate(189.4 271.49) rotate(168.32)"><tspan x="0" y="0">k</tspan></text>
  <text class="cls-2" transform="translate(166.13 275.72) rotate(178.17)"><tspan x="0" y="0">t</tspan></text>
  <text class="cls-2" transform="translate(148.09 276.38) rotate(-171.27)"><tspan x="0" y="0">a</tspan></text>
  <text class="cls-2" transform="translate(121.39 271.38) rotate(-161.48)"><tspan x="0" y="0">i</tspan></text>
  <text class="cls-2" transform="translate(107.97 266.63) rotate(-154.7)"><tspan x="0" y="0">l</tspan></text>
  <text class="cls-2" transform="translate(95.23 260.42) rotate(-147.39)"><tspan x="0" y="0"> </tspan></text>
  <text class="cls-2" transform="translate(81.31 251.96) rotate(-136.2)"><tspan x="0" y="0">C</tspan></text>
  <text class="cls-2" transform="translate(59.35 229.87) rotate(-122.94)"><tspan x="0" y="0">o</tspan></text>
  <text class="cls-2" transform="translate(46.05 208.19) rotate(-112.48)"><tspan x="0" y="0">r</tspan></text>
  <text class="cls-2" transform="translate(38.9 190.87) rotate(-101.88)"><tspan x="0" y="0">n</tspan></text>
  <text class="cls-2" transform="translate(34.2 165.68) rotate(-90.93)"><tspan x="0" y="0">e</tspan></text>
  <text class="cls-2" transform="translate(34.58 141.21) rotate(-79.97)"><tspan x="0" y="0">r</tspan></text>
  <text class="cls-2" transform="translate(38.24 122.64) rotate(-71.53)"><tspan x="0" y="0"> </tspan></text>
  <text class="cls-2" transform="translate(43.93 106.91) rotate(-64.96)"><tspan x="0" y="0">.</tspan></text>
</svg>